<svg width="28" height="34" viewBox="0 0 28 34" fill="none" xmlns="http://www.w3.org/2000/svg">
<path d="M25.667 8.66659H20.667V6.99992C20.667 5.23181 19.9646 3.53612 18.7144 2.28587C17.4641 1.03563 15.7684 0.333252 14.0003 0.333252C12.2322 0.333252 10.5365 1.03563 9.28628 2.28587C8.03604 3.53612 7.33366 5.23181 7.33366 6.99992V8.66659H2.33366C1.89163 8.66659 1.46771 8.84218 1.15515 9.15474C0.842587 9.4673 0.666992 9.89122 0.666992 10.3333V28.6666C0.666992 29.9927 1.19378 31.2644 2.13146 32.2021C3.06914 33.1398 4.34091 33.6666 5.66699 33.6666H22.3337C23.6597 33.6666 24.9315 33.1398 25.8692 32.2021C26.8069 31.2644 27.3337 29.9927 27.3337 28.6666V10.3333C27.3337 9.89122 27.1581 9.4673 26.8455 9.15474C26.5329 8.84218 26.109 8.66659 25.667 8.66659ZM10.667 6.99992C10.667 6.11586 11.0182 5.26802 11.6433 4.6429C12.2684 4.01777 13.1163 3.66659 14.0003 3.66659C14.8844 3.66659 15.7322 4.01777 16.3573 4.6429C16.9825 5.26802 17.3337 6.11586 17.3337 6.99992V8.66659H10.667V6.99992ZM24.0003 28.6666C24.0003 29.1086 23.8247 29.5325 23.5122 29.8451C23.1996 30.1577 22.7757 30.3333 22.3337 30.3333H5.66699C5.22496 30.3333 4.80104 30.1577 4.48848 29.8451C4.17592 29.5325 4.00033 29.1086 4.00033 28.6666V11.9999H7.33366V13.6666C7.33366 14.1086 7.50925 14.5325 7.82181 14.8451C8.13437 15.1577 8.5583 15.3333 9.00033 15.3333C9.44235 15.3333 9.86628 15.1577 10.1788 14.8451C10.4914 14.5325 10.667 14.1086 10.667 13.6666V11.9999H17.3337V13.6666C17.3337 14.1086 17.5093 14.5325 17.8218 14.8451C18.1344 15.1577 18.5583 15.3333 19.0003 15.3333C19.4424 15.3333 19.8663 15.1577 20.1788 14.8451C20.4914 14.5325 20.667 14.1086 20.667 13.6666V11.9999H24.0003V28.6666Z" fill="white"/>
</svg>
